<svg viewBox="0 0 52 49" fill="none" xmlns="http://www.w3.org/2000/svg"><path d="M51.43 0h-.24c-2.33 7.62-2.96 16.9-9.46 20.44-1.2-3.32-4.16-4.84-7.52-6.3-2.14-.92-4.6-2.53-6.67-2.61a2.24 2.24 0 0 0-1.52.31c-.45-.28-.99-.4-1.52-.31-2.02.08-4.54 1.7-6.67 2.61-3.36 1.46-6.32 2.97-7.52 6.3-6.5-3.54-7.13-12.82-9.46-20.44h-.24a13 13 0 0 0-.61 2.38c0 1.9.55 21.25 1.94 28.16 1.25 6.23 6.15 10.73 10.92 13.67 3.32 2.05 8.6 4.79 13.14 4.79 4.54 0 9.84-2.74 13.14-4.8 4.77-2.96 9.67-7.43 10.92-13.66 1.4-6.93 1.94-26.26 1.94-28.16-.12-.81-.3-1.6-.57-2.38Zm-14.03 27.79c-.25 1.53-1.68 3.35-3.4 3.44-3.03.16-4.55-4.37-7.94-4.33-3.39.04-4.93 4.5-7.94 4.33-1.72-.1-3.16-1.9-3.4-3.44a7.33 7.33 0 0 1 1.7-5.59c1.1-1.06 2.85-.92 4.73-1.19 1.8-.13 3.52-.8 4.91-1.93a8.87 8.87 0 0 0 4.91 1.93c1.88.27 3.62.13 4.73 1.2a7.43 7.43 0 0 1 1.7 5.58Z" fill="#826550"/></svg>