<svg viewBox="0 0 95 88" fill="none" xmlns="http://www.w3.org/2000/svg"><path d="m87.97 22.27-1.7 5.19a42.09 42.09 0 0 1 3.5 29.26 42.67 42.67 0 0 1-16.6 24.52c1.18.71 2.25 1.6 3.16 2.65a46.65 46.65 0 0 0 17.87-28.6 46.13 46.13 0 0 0-6.23-33.02Zm-78.37 47.58h1.36a42.23 42.23 0 0 1 4.1-51.54 43.62 43.62 0 0 1 24.06-13.52c9.3-1.8 18.95-.56 27.47 3.54a22.76 22.76 0 0 1 2.46-3.24 48.18 48.18 0 0 0-29.56-4.42 47.74 47.74 0 0 0-26.4 13.85 46.13 46.13 0 0 0-6.8 55.47c1.14-.11 2.27-.14 3.31-.14Z" fill="#826550"/><path d="M53.93 81.43c.44-6.1-.88-13.9.67-18.94 4.57-.08 9.64.35 13.26-.65 8.26-14.74 12.11-33.77 18.59-50.29v-2.6c-.69-2.99-3.78-3.68-6.64-4.58h-.66c-10.7 3.4-12.1 15.99-14.6 27.43-15.94-4.11-32.59-.06-33.18 15.02-4.56.07-8.07 1.21-9.95 3.91-.58 6.7 1.58 10.68 6.64 11.83a21.93 21.93 0 0 1-7.3 12.4c-6.46.62-15.78-1.59-19.25 1.99v2.61c3.18 3.83 12.97 1.17 19.24 1.99 6.65-3.99 8.51-12.58 11.95-19.67 4.71.36 10.96-.78 14.6.65v19.6c-7.9.49-15.59 1.2-19.24 5.87h45.12c-3.29-5.25-12.6-4.59-19.25-6.57Zm-15.92-34.57c.68-11.63 15.47-11.6 25.88-8.49.1 4.69-.53 10.09 1.32 13.06-7.1-.84-17.22-4.37-27.2-4.57Z" fill="#826550"/></svg>