<svg viewBox="0 0 95 94" fill="none" xmlns="http://www.w3.org/2000/svg"><path d="M90.28 28.35a47.3 47.3 0 0 0-8.5-13.08l-2 3.78a43.06 43.06 0 0 1 6.42 9.98l4.08-.68Zm-.28 15.15a42.97 42.97 0 0 1-12.46 33.92 43.09 43.09 0 0 1-32.77 12.53c.16.6.24 1.21.26 1.83a6.6 6.6 0 0 1-.4 2.15c.83 0 1.67.07 2.52.07a47.14 47.14 0 0 0 33.23-13.8 47.01 47.01 0 0 0 13.37-39.34c-1.2.95-2.45 1.83-3.75 2.63Zm-85.95 3.5a42.96 42.96 0 0 1 21.54-37.24 43.1 43.1 0 0 1 43.07.02l3.36-2.61a47.08 47.08 0 0 0-66.95 18.59 46.94 46.94 0 0 0 24.62 64.9 18.2 18.2 0 0 1-.56-4.59 43.02 43.02 0 0 1-25.08-39.06Z" fill="#826550"/><path d="M38.8 84.77c7.74-2.72 16.3-9.66 14.53-19.8-.9-5.13-4.48-4.99-7.26-9.23 14.43-11.98 24.2-28.6 32.98-46.18h-2c-7.45 5.65-21.9 16.97-28.4 26.39-2.6 3.77-4.6 9.29-7.27 13.85-4.54 7.73-15.11 21.2-6.6 31-1.39 4.62-1.2 12.37 3.99 12.54 3.26-1.73-1.36-4.6.03-8.57Zm8.3-38.76a2.59 2.59 0 1 1 .03 5.18 2.59 2.59 0 0 1-.02-5.18Zm-10.28 28.87c-1.86-8.99 7-16.92 11.88-9.24.26 7.4-6.17 15.73-11.88 9.23Z" fill="#826550"/><path d="M56.02 51.12c14-5.2 30.56-7.74 38.98-18.47-9.4 1.38-18.11 3.47-27.74 4.61-2.2 6.23-7.08 9.67-11.24 13.86Zm-43.64-11.18c-4.22 12.23 8.42 15.97 21.8 13.85 3.78-4.8 5.84-9.98 2-15.84-4.92-7.47-20.92-6.39-23.8 1.99Zm5.28 7.26c-5.12-10.85 12.88-11.08 14.53-5.26 2.18 7.56-9.1 7.98-14.53 5.23v.03Z" fill="#826550"/></svg>