<svg viewBox="0 0 57 97" fill="none" xmlns="http://www.w3.org/2000/svg"><path d="M51.12 15.13c-.39-5.4-.61-10.77-2.52-15.13-.76 0-1.53 7.26-2.28 10.84-1.48 7.1-3.71 8.23-4.44 8.23-.88-3.84-4.38-4.17-7.8-5.84-1.12-.6-2.34-1-3.6-1.2-.67 0-1.34.04-2 .12a14.8 14.8 0 0 0-2-.11c-1.26.19-2.48.59-3.6 1.19-3.42 1.63-6.94 1.98-7.8 5.84-.73 0-3-1.14-4.44-8.23-.71-3.58-1.48-10.84-2.24-10.84-1.91 4.36-2.13 9.72-2.52 15.13-.88 23.38-5.88 36.04-5.88 46.84 0 25.88 11.71 35.03 28.5 35.03s28.5-9.15 28.5-35.03c0-10.8-5-23.46-5.88-46.84Zm-16.68 9.7c-2.79 1.16-5.35-.7-5.88-.72h-.12c-.53 0-3.09 1.88-5.88.72-.78-3.56 2.4-3.98 5.94-3.89 3.55-.17 6.73.3 5.94 3.89Z" fill="#826550"/></svg>