<svg viewBox="0 0 58 57" fill="none" xmlns="http://www.w3.org/2000/svg"><path d="M29.4 8.77v-8.36a.4.4 0 0 0-.7-.29.4.4 0 0 0-.11.29v8.36h.82Zm-10.66 2.85c.23-.15.47-.28.7-.41l-4.19-7.23a.4.4 0 0 0-.7.4l4.19 7.24Zm-14.44 2.57a.4.4 0 0 0 .15.55l7.24 4.2c.13-.24.26-.48.4-.7l-7.23-4.2a.41.41 0 0 0-.56.15Zm39.26-10.71a.41.41 0 0 0-.56.15l-4.42 7.6.71.4 4.42-7.59a.4.4 0 0 0-.15-.56Zm10.39 11.09a.4.4 0 0 0 .05-.68.41.41 0 0 0-.46-.03l-7.62 4.4.41.71 7.62-4.4Zm-44.74 13.93v-.4h-8.8a.41.41 0 0 0-.29.69.4.4 0 0 0 .29.12h8.81v-.41Zm48.39-.4h-8.82v.8h8.81a.41.41 0 0 0 .41-.4.4.4 0 0 0-.4-.4Zm-4.05 14.16-7.24-4.2c-.13.24-.26.48-.4.7l7.23 4.2a.41.41 0 0 0 .45-.03.4.4 0 0 0-.04-.67Zm-49.51.17a.41.41 0 1 0 .42.7l7.62-4.39c-.15-.23-.28-.47-.41-.71l-7.63 4.4Zm35.22 2.95c-.23.15-.47.28-.71.41l4.2 7.23a.41.41 0 0 0 .74-.1.4.4 0 0 0-.04-.3l-4.19-7.24Zm-24.98 7.58a.4.4 0 0 0 .46.6c.1-.03.2-.1.25-.19l4.43-7.6-.71-.4-4.43 7.59Zm14.31-4.73v8.36a.4.4 0 0 0 .7.29.4.4 0 0 0 .12-.29v-8.36h-.82Zm14.29-27.03a.61.61 0 1 0-.61-1.07l-11.64 6.72a2.31 2.31 0 0 0-3.28 0l-8.3-4.83a.62.62 0 0 0-.91.69c.04.16.14.3.28.37l8.34 4.83a2.3 2.3 0 0 0 2.92 2.8 2.32 2.32 0 0 0 1.56-2.8l11.64-6.71Zm-13.88 8.41a1.1 1.1 0 0 1-1.07-1.3 1.09 1.09 0 0 1 1.49-.8 1.1 1.1 0 0 1 .67 1.01 1.09 1.09 0 0 1-1.1 1.07v.02Z" fill="#fff"/></svg>