<svg viewBox="0 0 58 68" fill="none" xmlns="http://www.w3.org/2000/svg"><path d="M51.89 22c.12-1.7.47-3.48.72-5.36.68-5.38 1.6-11.56-.12-16.64h-.2c-1.37 3.7-1.3 8.27-2.21 12.24a19.29 19.29 0 0 1-3.26 7.5c-.54.68-1.07 1.53-1.93 1.78-.65-3.89-4.3-4.9-7.69-6.3-2.14-.88-4.02-1.98-6.15-2.14-.67.01-1.35.09-2.01.22a11.5 11.5 0 0 0-2.01-.22c-2.16.15-4.02 1.26-6.15 2.14-3.41 1.4-7.04 2.41-7.73 6.3-.86-.25-1.4-1.1-1.93-1.79a19.6 19.6 0 0 1-3.26-7.49c-.92-3.97-.87-8.53-2.2-12.24h-.25c-1.73 5.08-.82 11.26-.12 16.64.25 1.88.6 3.67.72 5.35.8 10.95-6.98 22.9-6.03 28.65.94 7.46 8.45 9.32 14.24 12.25 4.37 2.22 8.36 4.95 13.4 5.11h2.57c5.02-.2 9.05-2.9 13.4-5.11 5.78-2.97 13.3-4.79 14.23-12.25.95-5.74-6.83-17.7-6.03-28.65Zm-22.89 3.76c-2.41.06-4.82-.1-7.2-.5.66-2.04 4.02-1.55 7.12-1.55h.16c3.02 0 6.46-.49 7.12 1.54-2.38.4-4.79.57-7.2.5Z" fill="#826550"/></svg>