<svg viewBox="0 0 23 26" fill="none" xmlns="http://www.w3.org/2000/svg"><path d="M21.06 23.17a7.75 7.75 0 0 0 1.94-5.17c0-3.23-2.62-5.48-6.29-6.3 1.58-.39 2.77-.82 3.56-1.87a5.67 5.67 0 0 0 1.2-3.52c0-1.77-.69-2.85-2.06-4.23-1.37-1.39-3.55-2.08-6.54-2.08h-12.87v26h13.5c4.24 0 6.26-1.32 7.56-2.83Zm-13.9-18.03h3.22c1.93 0 2.9.66 2.9 2.11 0 .53-.2 1.54-.62 2-.42.48-1.13.71-2.14.71h-3.36v-4.82Zm-.04 15.07v-4.72h3.94c1.28 0 2.15.25 2.63.75s.72 1.05.72 1.65c0 .6-.25 1.13-.74 1.6-.5.48-1.26.72-2.31.72h-4.24Z" fill="#fff"/></svg>