<svg viewBox="0 0 36 36" fill="none" xmlns="http://www.w3.org/2000/svg"><g clip-path="url(#a)"><path d="M35.25 9.76a4.1 4.1 0 0 0-1.15-1.9 4.58 4.58 0 0 0-2-1.12c-2.82-.74-14.1-.74-14.1-.74-4.71-.05-9.42.18-14.1.7a4.63 4.63 0 0 0-3.17 3.05c-.5 2.73-.75 5.49-.73 8.25-.02 2.76.23 5.52.73 8.24.2.72.6 1.38 1.16 1.9.56.53 1.25.92 2.02 1.12 2.85.74 14.08.74 14.08.74 4.71.05 9.42-.18 14.1-.7.76-.2 1.45-.58 2.01-1.12.55-.52.95-1.18 1.15-1.9.52-2.72.77-5.48.75-8.25a39.6 39.6 0 0 0-.75-8.27Zm-20.85 13.38v-10.27l9.4 5.13-9.4 5.14Z" fill="#fff"/></g><defs><clipPath id="a"><path fill="#fff" d="M0 0h36v36h-36z"/></clipPath></defs></svg>