<svg viewBox="0 0 63 78" fill="none" xmlns="http://www.w3.org/2000/svg"><path d="M63 41.74c0-5.18-2.4-7.72-3.63-9.94a54.73 54.73 0 0 1-4.24-17.49c-.08-4.88-1.71-12.32-2.91-14.31-.88 0-1.54 7.73-2.3 11.57-1.45 6.95-3.81 8.87-4.49 8.94-.76-2.8-4.15-7.31-13.8-7.68h-.26c-9.65.36-13.05 4.89-13.8 7.68-.69-.07-3.03-1.99-4.49-8.94-.76-3.84-1.43-11.57-2.3-11.57-1.2 1.99-2.83 9.43-2.9 14.31a55.28 55.28 0 0 1-4.25 17.49c-1.24 2.22-3.63 4.76-3.63 9.94 0 3.71 5.25 7.15 5.7 11.33.12 1.2 0 2.33.12 3.34 2.01 17.37 18.04 21.59 25.68 21.59 7.64 0 23.67-4.22 25.68-21.6.16-.99 0-2.12.13-3.33.44-4.18 5.69-7.6 5.69-11.33Zm-29.44-15.15a21.95 21.95 0 0 0-4.12 0c-1.75.34-5.82 1-5.82-1.07 0-1.06 6.79-2.28 7.88-2.28 1.09 0 7.88 1.22 7.88 2.28 0 2.06-4.04 1.41-5.82 1.07Z" fill="#826550"/></svg>