<svg viewBox="0 0 45 104" fill="none" xmlns="http://www.w3.org/2000/svg"><path d="M43.7 0h-.11c-2.84 21.37-5.42 22.4-7.05 22.51-1.64.12-3.67-1.76-4.96-2.5a16.23 16.23 0 0 0-9.13-2.52c-3.23-.09-6.4.8-9.12 2.52-1.3.74-3.53 2.61-4.96 2.5-1.55-.12-4.14-1.14-6.97-22.51h-.12c-2.09 12.12-1.57 49.83 1.2 63.13 2.64 18.38 10.2 34.84 13.55 39.3.68 1 3.55 1.56 6.46 1.57 2.91.01 5.78-.54 6.47-1.57 3.35-4.46 10.91-20.92 13.54-39.3 2.83-13.3 3.3-51.01 1.2-63.13Zm-21.2 27.94c-3.42 0-6.83.18-10.22.53 1.14-1.74 9.06-3.22 10.21-3.43 1.16.21 9.07 1.69 10.22 3.43-3.4-.35-6.8-.53-10.22-.53Z" fill="#826550"/></svg>