<svg xmlns="http://www.w3.org/2000/svg"><style>:root svg:not(:target){display:none}</style><svg viewBox="0 0 52 49" fill="none" id="admiral"><path d="M51.43 0h-.24c-2.33 7.62-2.96 16.9-9.46 20.44-1.2-3.32-4.16-4.84-7.52-6.3-2.14-.92-4.6-2.53-6.67-2.61a2.24 2.24 0 0 0-1.52.31c-.45-.28-.99-.4-1.52-.31-2.02.08-4.54 1.7-6.67 2.61-3.36 1.46-6.32 2.97-7.52 6.3-6.5-3.54-7.13-12.82-9.46-20.44h-.24a13 13 0 0 0-.61 2.38c0 1.9.55 21.25 1.94 28.16 1.25 6.23 6.15 10.73 10.92 13.67 3.32 2.05 8.6 4.79 13.14 4.79 4.54 0 9.84-2.74 13.14-4.8 4.77-2.96 9.67-7.43 10.92-13.66 1.4-6.93 1.94-26.26 1.94-28.16-.12-.81-.3-1.6-.57-2.38Zm-14.03 27.79c-.25 1.53-1.68 3.35-3.4 3.44-3.03.16-4.55-4.37-7.94-4.33-3.39.04-4.93 4.5-7.94 4.33-1.72-.1-3.16-1.9-3.4-3.44a7.33 7.33 0 0 1 1.7-5.59c1.1-1.06 2.85-.92 4.73-1.19 1.8-.13 3.52-.8 4.91-1.93a8.87 8.87 0 0 0 4.91 1.93c1.88.27 3.62.13 4.73 1.2a7.43 7.43 0 0 1 1.7 5.58Z" fill="#826550"></path></svg><svg viewBox="0 0 95 94" fill="none" id="advantage-1-icon"><path d="M90.28 28.35a47.3 47.3 0 0 0-8.5-13.08l-2 3.78a43.06 43.06 0 0 1 6.42 9.98l4.08-.68Zm-.28 15.15a42.97 42.97 0 0 1-12.46 33.92 43.09 43.09 0 0 1-32.77 12.53c.16.6.24 1.21.26 1.83a6.6 6.6 0 0 1-.4 2.15c.83 0 1.67.07 2.52.07a47.14 47.14 0 0 0 33.23-13.8 47.01 47.01 0 0 0 13.37-39.34c-1.2.95-2.45 1.83-3.75 2.63Zm-85.95 3.5a42.96 42.96 0 0 1 21.54-37.24 43.1 43.1 0 0 1 43.07.02l3.36-2.61a47.08 47.08 0 0 0-66.95 18.59 46.94 46.94 0 0 0 24.62 64.9 18.2 18.2 0 0 1-.56-4.59 43.02 43.02 0 0 1-25.08-39.06Z" fill="#826550"></path><path d="M38.8 84.77c7.74-2.72 16.3-9.66 14.53-19.8-.9-5.13-4.48-4.99-7.26-9.23 14.43-11.98 24.2-28.6 32.98-46.18h-2c-7.45 5.65-21.9 16.97-28.4 26.39-2.6 3.77-4.6 9.29-7.27 13.85-4.54 7.73-15.11 21.2-6.6 31-1.39 4.62-1.2 12.37 3.99 12.54 3.26-1.73-1.36-4.6.03-8.57Zm8.3-38.76a2.59 2.59 0 1 1 .03 5.18 2.59 2.59 0 0 1-.02-5.18Zm-10.28 28.87c-1.86-8.99 7-16.92 11.88-9.24.26 7.4-6.17 15.73-11.88 9.23Z" fill="#826550"></path><path d="M56.02 51.12c14-5.2 30.56-7.74 38.98-18.47-9.4 1.38-18.11 3.47-27.74 4.61-2.2 6.23-7.08 9.67-11.24 13.86Zm-43.64-11.18c-4.22 12.23 8.42 15.97 21.8 13.85 3.78-4.8 5.84-9.98 2-15.84-4.92-7.47-20.92-6.39-23.8 1.99Zm5.28 7.26c-5.12-10.85 12.88-11.08 14.53-5.26 2.18 7.56-9.1 7.98-14.53 5.23v.03Z" fill="#826550"></path></svg><svg viewBox="0 0 95 88" fill="none" id="advantage-2-icon"><path d="m87.97 22.27-1.7 5.19a42.09 42.09 0 0 1 3.5 29.26 42.67 42.67 0 0 1-16.6 24.52c1.18.71 2.25 1.6 3.16 2.65a46.65 46.65 0 0 0 17.87-28.6 46.13 46.13 0 0 0-6.23-33.02Zm-78.37 47.58h1.36a42.23 42.23 0 0 1 4.1-51.54 43.62 43.62 0 0 1 24.06-13.52c9.3-1.8 18.95-.56 27.47 3.54a22.76 22.76 0 0 1 2.46-3.24 48.18 48.18 0 0 0-29.56-4.42 47.74 47.74 0 0 0-26.4 13.85 46.13 46.13 0 0 0-6.8 55.47c1.14-.11 2.27-.14 3.31-.14Z" fill="#826550"></path><path d="M53.93 81.43c.44-6.1-.88-13.9.67-18.94 4.57-.08 9.64.35 13.26-.65 8.26-14.74 12.11-33.77 18.59-50.29v-2.6c-.69-2.99-3.78-3.68-6.64-4.58h-.66c-10.7 3.4-12.1 15.99-14.6 27.43-15.94-4.11-32.59-.06-33.18 15.02-4.56.07-8.07 1.21-9.95 3.91-.58 6.7 1.58 10.68 6.64 11.83a21.93 21.93 0 0 1-7.3 12.4c-6.46.62-15.78-1.59-19.25 1.99v2.61c3.18 3.83 12.97 1.17 19.24 1.99 6.65-3.99 8.51-12.58 11.95-19.67 4.71.36 10.96-.78 14.6.65v19.6c-7.9.49-15.59 1.2-19.24 5.87h45.12c-3.29-5.25-12.6-4.59-19.25-6.57Zm-15.92-34.57c.68-11.63 15.47-11.6 25.88-8.49.1 4.69-.53 10.09 1.32 13.06-7.1-.84-17.22-4.37-27.2-4.57Z" fill="#826550"></path></svg><svg viewBox="0 0 95 91" fill="none" id="advantage-3-icon"><path d="M47.53 8.08a9.14 9.14 0 0 1 8.51 5.54 8.84 8.84 0 0 1-1.97 9.83 9.37 9.37 0 0 1-10.02 1.97 9.16 9.16 0 0 1-4.14-3.32 8.88 8.88 0 0 1 1.13-11.37 9.3 9.3 0 0 1 6.49-2.65Z" fill="#826550"></path><path d="M68.1 26.1h-41.15c-.75 0-1.47.3-2 .81a2.76 2.76 0 0 0-.83 1.97v4.42c0 .74.3 1.45.83 1.97s1.25.82 2 .82h.84v44.9h-.84c-.75 0-1.47.3-2 .82a2.76 2.76 0 0 0-.83 1.97v4.42c0 .74.3 1.45.83 1.97.53.53 1.25.82 2 .83h41.15c.75 0 1.47-.3 2-.82.54-.52.84-1.23.84-1.97v-4.43c0-.74-.3-1.45-.83-1.97a2.89 2.89 0 0 0-2.01-.82h-.84v-44.9h.84c.75 0 1.47-.3 2-.82.54-.52.84-1.23.84-1.97v-4.42c0-.74-.3-1.44-.83-1.97a2.89 2.89 0 0 0-2.01-.82Zm-34.12 10h13.32l-13.32 13.05v-13.06Zm27.1 44.89h-13.64l13.63-13.32v13.32Zm0-28.4-27.1 26.54v-14.9l27.1-26.55v14.91Z" fill="#826550"></path><path d="M47.53 0a48.16 48.16 0 0 0-27.8 8.8 46.64 46.64 0 0 0-17.3 23.08 45.68 45.68 0 0 0-.25 28.63 46.6 46.6 0 0 0 16.9 23.36v-.1c0-1.42.4-2.83 1.17-4.05a42.57 42.57 0 0 1-14.57-21.53 41.8 41.8 0 0 1 .81-25.83 42.71 42.71 0 0 1 15.89-20.62 44.1 44.1 0 0 1 25.13-7.83c9 0 17.77 2.73 25.12 7.83a42.71 42.71 0 0 1 15.89 20.62 41.8 41.8 0 0 1 .8 25.83 42.57 42.57 0 0 1-14.56 21.53 7.6 7.6 0 0 1 1.19 4.06v.09a46.6 46.6 0 0 0 16.87-23.36 45.69 45.69 0 0 0-.24-28.61 46.65 46.65 0 0 0-17.28-23.08 48.2 48.2 0 0 0-27.77-8.82Z" fill="#826550"></path></svg><svg viewBox="0 0 320 34" fill="none" id="angle"><path d="M320 34h-160l160-34v34Zm-320 0h160l-160-34v34Z" fill="#292929"></path></svg><svg viewBox="0 0 12 12" fill="none" id="arrow"><path d="m12 12-12-6 12-6v12Z" fill="#000"></path></svg><svg viewBox="0 0 57 97" fill="none" id="boyar"><path d="M51.12 15.13c-.39-5.4-.61-10.77-2.52-15.13-.76 0-1.53 7.26-2.28 10.84-1.48 7.1-3.71 8.23-4.44 8.23-.88-3.84-4.38-4.17-7.8-5.84-1.12-.6-2.34-1-3.6-1.2-.67 0-1.34.04-2 .12a14.8 14.8 0 0 0-2-.11c-1.26.19-2.48.59-3.6 1.19-3.42 1.63-6.94 1.98-7.8 5.84-.73 0-3-1.14-4.44-8.23-.71-3.58-1.48-10.84-2.24-10.84-1.91 4.36-2.13 9.72-2.52 15.13-.88 23.38-5.88 36.04-5.88 46.84 0 25.88 11.71 35.03 28.5 35.03s28.5-9.15 28.5-35.03c0-10.8-5-23.46-5.88-46.84Zm-16.68 9.7c-2.79 1.16-5.35-.7-5.88-.72h-.12c-.53 0-3.09 1.88-5.88.72-.78-3.56 2.4-3.98 5.94-3.89 3.55-.17 6.73.3 5.94 3.89Z" fill="#826550"></path></svg><svg viewBox="0 0 58 57" fill="none" id="clock"><path d="M29.4 8.77v-8.36a.4.4 0 0 0-.7-.29.4.4 0 0 0-.11.29v8.36h.82Zm-10.66 2.85c.23-.15.47-.28.7-.41l-4.19-7.23a.4.4 0 0 0-.7.4l4.19 7.24Zm-14.44 2.57a.4.4 0 0 0 .15.55l7.24 4.2c.13-.24.26-.48.4-.7l-7.23-4.2a.41.41 0 0 0-.56.15Zm39.26-10.71a.41.41 0 0 0-.56.15l-4.42 7.6.71.4 4.42-7.59a.4.4 0 0 0-.15-.56Zm10.39 11.09a.4.4 0 0 0 .05-.68.41.41 0 0 0-.46-.03l-7.62 4.4.41.71 7.62-4.4Zm-44.74 13.93v-.4h-8.8a.41.41 0 0 0-.29.69.4.4 0 0 0 .29.12h8.81v-.41Zm48.39-.4h-8.82v.8h8.81a.41.41 0 0 0 .41-.4.4.4 0 0 0-.4-.4Zm-4.05 14.16-7.24-4.2c-.13.24-.26.48-.4.7l7.23 4.2a.41.41 0 0 0 .45-.03.4.4 0 0 0-.04-.67Zm-49.51.17a.41.41 0 1 0 .42.7l7.62-4.39c-.15-.23-.28-.47-.41-.71l-7.63 4.4Zm35.22 2.95c-.23.15-.47.28-.71.41l4.2 7.23a.41.41 0 0 0 .74-.1.4.4 0 0 0-.04-.3l-4.19-7.24Zm-24.98 7.58a.4.4 0 0 0 .46.6c.1-.03.2-.1.25-.19l4.43-7.6-.71-.4-4.43 7.59Zm14.31-4.73v8.36a.4.4 0 0 0 .7.29.4.4 0 0 0 .12-.29v-8.36h-.82Zm14.29-27.03a.61.61 0 1 0-.61-1.07l-11.64 6.72a2.31 2.31 0 0 0-3.28 0l-8.3-4.83a.62.62 0 0 0-.91.69c.04.16.14.3.28.37l8.34 4.83a2.3 2.3 0 0 0 2.92 2.8 2.32 2.32 0 0 0 1.56-2.8l11.64-6.71Zm-13.88 8.41a1.1 1.1 0 0 1-1.07-1.3 1.09 1.09 0 0 1 1.49-.8 1.1 1.1 0 0 1 .67 1.01 1.09 1.09 0 0 1-1.1 1.07v.02Z" fill="#fff"></path></svg><svg viewBox="0 0 26 26" fill="none" id="cross"><path d="M.36 24.16a1.06 1.06 0 0 0-.1 1.49 1.06 1.06 0 0 0 1.48-.11l23.8-23.8a1.06 1.06 0 0 0 .1-1.49 1.06 1.06 0 0 0-1.48.11l-23.8 23.8Z" fill="#fff"></path><path d="M.25.25a1.06 1.06 0 0 0 .11 1.5l23.8 23.79a1 1 0 1 0 1.38-1.38l-23.8-23.8a1.06 1.06 0 0 0-1.49-.1Z" fill="#fff"></path></svg><svg viewBox="0 0 58 68" fill="none" id="logger"><path d="M51.89 22c.12-1.7.47-3.48.72-5.36.68-5.38 1.6-11.56-.12-16.64h-.2c-1.37 3.7-1.3 8.27-2.21 12.24a19.29 19.29 0 0 1-3.26 7.5c-.54.68-1.07 1.53-1.93 1.78-.65-3.89-4.3-4.9-7.69-6.3-2.14-.88-4.02-1.98-6.15-2.14-.67.01-1.35.09-2.01.22a11.5 11.5 0 0 0-2.01-.22c-2.16.15-4.02 1.26-6.15 2.14-3.41 1.4-7.04 2.41-7.73 6.3-.86-.25-1.4-1.1-1.93-1.79a19.6 19.6 0 0 1-3.26-7.49c-.92-3.97-.87-8.53-2.2-12.24h-.25c-1.73 5.08-.82 11.26-.12 16.64.25 1.88.6 3.67.72 5.35.8 10.95-6.98 22.9-6.03 28.65.94 7.46 8.45 9.32 14.24 12.25 4.37 2.22 8.36 4.95 13.4 5.11h2.57c5.02-.2 9.05-2.9 13.4-5.11 5.78-2.97 13.3-4.79 14.23-12.25.95-5.74-6.83-17.7-6.03-28.65Zm-22.89 3.76c-2.41.06-4.82-.1-7.2-.5.66-2.04 4.02-1.55 7.12-1.55h.16c3.02 0 6.46-.49 7.12 1.54-2.38.4-4.79.57-7.2.5Z" fill="#826550"></path></svg><svg viewBox="0 0 16 16" fill="none" id="login"><g opacity=".3" fill="#fff"><path d="M7 2h7v12h-7v2h9v-16h-9v2Z"></path><path d="M7 9h-7v-2h7v-3l4 4-4 4v-3Z"></path></g></svg><svg viewBox="0 0 36 36" fill="none" id="logo-telegram"><path d="m31 5.58-26.6 10.25c-1.81.73-1.8 1.74-.33 2.2l6.83 2.12 15.8-9.96c.74-.46 1.43-.21.86.28l-12.8 11.56-.47 7.04c.7 0 1-.32 1.39-.7l3.31-3.22 6.9 5.1c1.27.7 2.19.34 2.5-1.18l4.53-21.34c.46-1.86-.7-2.7-1.92-2.15Z" fill="#fff"></path></svg><svg viewBox="0 0 23 26" fill="none" id="logo-vk"><path d="M21.06 23.17a7.75 7.75 0 0 0 1.94-5.17c0-3.23-2.62-5.48-6.29-6.3 1.58-.39 2.77-.82 3.56-1.87a5.67 5.67 0 0 0 1.2-3.52c0-1.77-.69-2.85-2.06-4.23-1.37-1.39-3.55-2.08-6.54-2.08h-12.87v26h13.5c4.24 0 6.26-1.32 7.56-2.83Zm-13.9-18.03h3.22c1.93 0 2.9.66 2.9 2.11 0 .53-.2 1.54-.62 2-.42.48-1.13.71-2.14.71h-3.36v-4.82Zm-.04 15.07v-4.72h3.94c1.28 0 2.15.25 2.63.75s.72 1.05.72 1.65c0 .6-.25 1.13-.74 1.6-.5.48-1.26.72-2.31.72h-4.24Z" fill="#fff"></path></svg><svg viewBox="0 0 36 36" fill="none" id="logo-youtube"><g clip-path="url(#logo-youtube_0)"><path d="M35.25 9.76a4.1 4.1 0 0 0-1.15-1.9 4.58 4.58 0 0 0-2-1.12c-2.82-.74-14.1-.74-14.1-.74-4.71-.05-9.42.18-14.1.7a4.63 4.63 0 0 0-3.17 3.05c-.5 2.73-.75 5.49-.73 8.25-.02 2.76.23 5.52.73 8.24.2.72.6 1.38 1.16 1.9.56.53 1.25.92 2.02 1.12 2.85.74 14.08.74 14.08.74 4.71.05 9.42-.18 14.1-.7.76-.2 1.45-.58 2.01-1.12.55-.52.95-1.18 1.15-1.9.52-2.72.77-5.48.75-8.25a39.6 39.6 0 0 0-.75-8.27Zm-20.85 13.38v-10.27l9.4 5.13-9.4 5.14Z" fill="#fff"></path></g><defs><clipPath id="logo-youtube_0"><path fill="#fff" d="M0 0h36v36h-36z"></path></clipPath></defs></svg><svg viewBox="0 0 36 21" fill="none" id="menu"><path d="M0 1.32h36m-36 18.36h36m-36-9.18h36" stroke="#fff" stroke-width="2"></path></svg><svg viewBox="0 0 45 12" fill="none" id="mustache"><path d="M22.49 7.67a10.24 10.24 0 0 0 3.8 3.19 11.1 11.1 0 0 0 4.98 1.13c7.16.26 13.73-4.85 13.73-6.77-2.78 2.32-7.39 2.53-9.95 1.57-3.78-1.4-3.12-4.18-5.88-5.99a5.4 5.4 0 0 0-5.68 0c-.37.2-.7.46-1 .75a4.9 4.9 0 0 0-1-.75 5.4 5.4 0 0 0-5.69 0c-2.75 1.86-2.09 4.59-5.87 6-2.56.92-7.17.74-9.93-1.58 0 1.92 6.55 7.03 13.71 6.77a11.1 11.1 0 0 0 4.98-1.13 10.24 10.24 0 0 0 3.8-3.2Z" fill="#826550"></path></svg><svg viewBox="0 0 63 78" fill="none" id="polar"><path d="M63 41.74c0-5.18-2.4-7.72-3.63-9.94a54.73 54.73 0 0 1-4.24-17.49c-.08-4.88-1.71-12.32-2.91-14.31-.88 0-1.54 7.73-2.3 11.57-1.45 6.95-3.81 8.87-4.49 8.94-.76-2.8-4.15-7.31-13.8-7.68h-.26c-9.65.36-13.05 4.89-13.8 7.68-.69-.07-3.03-1.99-4.49-8.94-.76-3.84-1.43-11.57-2.3-11.57-1.2 1.99-2.83 9.43-2.9 14.31a55.28 55.28 0 0 1-4.25 17.49c-1.24 2.22-3.63 4.76-3.63 9.94 0 3.71 5.25 7.15 5.7 11.33.12 1.2 0 2.33.12 3.34 2.01 17.37 18.04 21.59 25.68 21.59 7.64 0 23.67-4.22 25.68-21.6.16-.99 0-2.12.13-3.33.44-4.18 5.69-7.6 5.69-11.33Zm-29.44-15.15a21.95 21.95 0 0 0-4.12 0c-1.75.34-5.82 1-5.82-1.07 0-1.06 6.79-2.28 7.88-2.28 1.09 0 7.88 1.22 7.88 2.28 0 2.06-4.04 1.41-5.82 1.07Z" fill="#826550"></path></svg><svg viewBox="0 0 45 104" fill="none" id="sage"><path d="M43.7 0h-.11c-2.84 21.37-5.42 22.4-7.05 22.51-1.64.12-3.67-1.76-4.96-2.5a16.23 16.23 0 0 0-9.13-2.52c-3.23-.09-6.4.8-9.12 2.52-1.3.74-3.53 2.61-4.96 2.5-1.55-.12-4.14-1.14-6.97-22.51h-.12c-2.09 12.12-1.57 49.83 1.2 63.13 2.64 18.38 10.2 34.84 13.55 39.3.68 1 3.55 1.56 6.46 1.57 2.91.01 5.78-.54 6.47-1.57 3.35-4.46 10.91-20.92 13.54-39.3 2.83-13.3 3.3-51.01 1.2-63.13Zm-21.2 27.94c-3.42 0-6.83.18-10.22.53 1.14-1.74 9.06-3.22 10.21-3.43 1.16.21 9.07 1.69 10.22 3.43-3.4-.35-6.8-.53-10.22-.53Z" fill="#826550"></path></svg><svg viewBox="0 0 21 20" fill="none" id="scissors"><path d="M8 4a4 4 0 1 0-4 4c.56.02 1.12-.12 1.6-.4l2.4 2.4-2.4 2.4a2.93 2.93 0 0 0-1.6-.4 4 4 0 1 0 4 4 2.93 2.93 0 0 0-.4-1.6l2.4-2.4 7 7h4l-13.4-13.4c.28-.48.42-1.04.4-1.6Zm-4 2a2 2 0 1 1 0-4 2 2 0 0 1 0 4Zm0 12a2 2 0 1 1 0-4 2 2 0 0 1 0 4Zm6-8.5a.5.5 0 1 1-.5.5.47.47 0 0 1 .5-.5Zm11-8.5h-4l-6 6 2 2 8-8Z" fill="#826550"></path></svg></svg>